<svg id="Слой_1" data-name="Слой 1" xmlns="http://www.w3.org/2000/svg" viewBox="0 0 32 32"><defs><style>.cls-1{fill:#fff;}.cls-2{fill:#2c2a7a;}</style></defs><rect class="cls-1" width="32" height="32" rx="16"/><path class="cls-2" d="M9.24,12.9v5.35H8.7V14l-2.1,3.6H6.33L4.23,14v4.26H3.68V12.9h.47l2.32,4,2.31-4Z"/><path class="cls-2" d="M13.49,14.59a1.52,1.52,0,0,1,.42,1.17v2.49h-.52v-.63a1.23,1.23,0,0,1-.54.49,1.87,1.87,0,0,1-.85.18A1.65,1.65,0,0,1,10.93,18a1.11,1.11,0,0,1,0-1.67A1.79,1.79,0,0,1,12.09,16h1.28v-.25a1,1,0,0,0-.3-.79,1.18,1.18,0,0,0-.84-.27,2.06,2.06,0,0,0-.74.13,2,2,0,0,0-.6.34l-.25-.4a2,2,0,0,1,.74-.4,2.66,2.66,0,0,1,.9-.15A1.73,1.73,0,0,1,13.49,14.59Zm-.61,3.06a1.36,1.36,0,0,0,.49-.61v-.66H12.1c-.68,0-1,.24-1,.72a.67.67,0,0,0,.27.56,1.26,1.26,0,0,0,.75.2A1.46,1.46,0,0,0,12.88,17.65Z"/><path class="cls-2" d="M16.47,14.4a2,2,0,0,1,.94-.21v.53h-.13a1.31,1.31,0,0,0-1,.38,1.58,1.58,0,0,0-.36,1.1v2.05h-.55v-4h.52V15A1.35,1.35,0,0,1,16.47,14.4Z"/><path class="cls-2" d="M22,14.23l-1.79,4H19.6l-1.78-4h.56l1.51,3.42,1.52-3.42Z"/><path class="cls-2" d="M22.7,13.23a.4.4,0,0,1-.11-.27.37.37,0,0,1,.11-.27.38.38,0,0,1,.29-.12.41.41,0,0,1,.28.11.4.4,0,0,1,.11.27.41.41,0,0,1-.11.28.38.38,0,0,1-.28.12A.38.38,0,0,1,22.7,13.23Zm0,1h.54v4h-.54Z"/><path class="cls-2" d="M28,14.63a1.73,1.73,0,0,1,.45,1.29v2.33h-.54V16a1.34,1.34,0,0,0-.32-1,1.16,1.16,0,0,0-.89-.33,1.37,1.37,0,0,0-1,.39,1.47,1.47,0,0,0-.38,1.07v2.11h-.54v-4h.52V15a1.46,1.46,0,0,1,.61-.57,2,2,0,0,1,.92-.21A1.66,1.66,0,0,1,28,14.63Z"/></svg>